<svg xmlns="http://www.w3.org/2000/svg" xmlns:xlink="http://www.w3.org/1999/xlink" width="10" height="10" viewBox="0 0 10 10">
  <defs>
    <clipPath id="clip-path">
      <rect width="10" height="10" fill="none"/>
    </clipPath>
  </defs>
  <g id="d8e265a99c" transform="translate(0)" clip-path="url(#clip-path)">
    <path id="d8e265a99c-2" data-name="d8e265a99c" d="M69.713,80.477a.28.28,0,0,1-.07,0h0c-.12-.014-.146-.109-.115-.326.106-.779.216-1.559.324-2.338l.1-.76a.226.226,0,0,0-.133-.24.215.215,0,0,0-.259.074c-.647.889-1.765,2.444-2.492,3.462a.486.486,0,0,0-.041.5.46.46,0,0,0,.413.26h.937c.137.009.173.1.142.31q-.213,1.4-.427,2.8v.009a.227.227,0,0,0,.131.243.215.215,0,0,0,.26-.073c.607-.83,1.613-2.231,2.275-3.162a.486.486,0,0,0,.041-.5.46.46,0,0,0-.414-.26h-.673Zm-3.421,4.954a.361.361,0,0,0-.133-.337,4.493,4.493,0,0,1-1.659-4.2,4.4,4.4,0,0,1,2.8-3.5.35.35,0,0,0,.165-.125.364.364,0,0,0,0-.421.34.34,0,0,0-.391-.124,5.1,5.1,0,0,0-3.26,4.064,5.209,5.209,0,0,0,1.933,4.88.337.337,0,0,0,.335.041A.354.354,0,0,0,66.292,85.431ZM71.2,77.678a.361.361,0,0,0,.135.333,4.5,4.5,0,0,1,1.675,4.229,4.4,4.4,0,0,1-2.842,3.507.35.35,0,0,0-.168.126.364.364,0,0,0,0,.418.34.34,0,0,0,.387.126,5.1,5.1,0,0,0,3.3-4.068,5.209,5.209,0,0,0-1.95-4.908.337.337,0,0,0-.337-.039.354.354,0,0,0-.207.276Zm-2.789,8.558a.45.45,0,1,1-.449-.462A.456.456,0,0,1,68.415,86.236Z" transform="translate(-63.757 -76.699)" fill="#000"/>
  </g>
</svg>
