<svg id="verified" xmlns="http://www.w3.org/2000/svg" width="148" height="148" viewBox="0 0 148 148">
  <g id="Groupe_41" data-name="Groupe 41">
    <g id="Groupe_40" data-name="Groupe 40">
      <path id="Tracé_78" data-name="Tracé 78" d="M126.326,21.674A74,74,0,0,0,21.674,126.326,74,74,0,1,0,126.326,21.674ZM74,139.328A65.328,65.328,0,1,1,139.328,74,65.4,65.4,0,0,1,74,139.328Z" fill="#93e6a1"/>
    </g>
  </g>
  <g id="Groupe_43" data-name="Groupe 43" transform="translate(37.376 48.987)">
    <g id="Groupe_42" data-name="Groupe 42">
      <path id="Tracé_79" data-name="Tracé 79" d="M201.278,170.737a4.336,4.336,0,0,0-6.132,0l-38.289,38.289L136.7,188.87A4.336,4.336,0,1,0,130.57,195l23.221,23.221a4.336,4.336,0,0,0,6.132,0l41.355-41.355A4.336,4.336,0,0,0,201.278,170.737Z" transform="translate(-129.301 -169.467)" fill="#93e6a1"/>
    </g>
  </g>
</svg>
