<svg id="bottle" xmlns="http://www.w3.org/2000/svg" width="15" height="32" viewBox="0 0 15 32">
  <path id="Tracé_24" data-name="Tracé 24" d="M0,183.813a1.875,1.875,0,0,0,1.875,1.875h11.25A1.875,1.875,0,0,0,15,183.813v-1.937A1.875,1.875,0,0,0,13.125,180H1.875A1.875,1.875,0,0,0,0,181.875Zm0,0" transform="translate(0 -168.75)"/>
  <path id="Tracé_25" data-name="Tracé 25" d="M0,304.75a1.875,1.875,0,0,0,1.875,1.875h11.25A1.875,1.875,0,0,0,15,304.75v-1.875A1.875,1.875,0,0,0,13.125,301H1.875A1.875,1.875,0,0,0,0,302.875Zm0,0" transform="translate(0 -282.188)"/>
  <path id="Tracé_26" data-name="Tracé 26" d="M0,425.75a.937.937,0,0,0,.938.938H14.063A.937.937,0,0,0,15,425.75V421H0Zm0,0" transform="translate(0 -394.688)"/>
  <path id="Tracé_27" data-name="Tracé 27" d="M.275,92.15A.937.937,0,0,0,0,92.813v.938H15v-.937a.937.937,0,0,0-.275-.663L12.576,90H2.424Zm0,0" transform="translate(0 -84.375)"/>
  <path id="Tracé_28" data-name="Tracé 28" d="M66.563,0H60.938A.937.937,0,0,0,60,.938V3.75h7.5V.938A.937.937,0,0,0,66.563,0Zm0,0" transform="translate(-56.25)"/>
</svg>
